<svg xmlns="http://www.w3.org/2000/svg" width="128" height="128" viewBox="0 0 128 128"><rect width="128" height="128" fill="#4a8db7"/><rect x="2" y="2" width="30" height="14" fill="#7ec8e3"/><rect x="34" y="2" width="30" height="14" fill="#7ec8e3"/><rect x="66" y="2" width="30" height="14" fill="#7ec8e3"/><rect x="98" y="2" width="30" height="14" fill="#7ec8e3"/><rect x="-14" y="18" width="30" height="14" fill="#7ec8e3"/><rect x="18" y="18" width="30" height="14" fill="#7ec8e3"/><rect x="50" y="18" width="30" height="14" fill="#7ec8e3"/><rect x="82" y="18" width="30" height="14" fill="#7ec8e3"/><rect x="114" y="18" width="14" height="14" fill="#7ec8e3"/><rect x="2" y="34" width="30" height="14" fill="#7ec8e3"/><rect x="34" y="34" width="30" height="14" fill="#7ec8e3"/><rect x="66" y="34" width="30" height="14" fill="#7ec8e3"/><rect x="98" y="34" width="30" height="14" fill="#7ec8e3"/><rect x="-14" y="50" width="30" height="14" fill="#7ec8e3"/><rect x="18" y="50" width="30" height="14" fill="#7ec8e3"/><rect x="50" y="50" width="30" height="14" fill="#7ec8e3"/><rect x="82" y="50" width="30" height="14" fill="#7ec8e3"/><rect x="114" y="50" width="14" height="14" fill="#7ec8e3"/><rect x="2" y="66" width="30" height="14" fill="#7ec8e3"/><rect x="34" y="66" width="30" height="14" fill="#7ec8e3"/><rect x="66" y="66" width="30" height="14" fill="#7ec8e3"/><rect x="98" y="66" width="30" height="14" fill="#7ec8e3"/><rect x="-14" y="82" width="30" height="14" fill="#7ec8e3"/><rect x="18" y="82" width="30" height="14" fill="#7ec8e3"/><rect x="50" y="82" width="30" height="14" fill="#7ec8e3"/><rect x="82" y="82" width="30" height="14" fill="#7ec8e3"/><rect x="114" y="82" width="14" height="14" fill="#7ec8e3"/><rect x="2" y="98" width="30" height="14" fill="#7ec8e3"/><rect x="34" y="98" width="30" height="14" fill="#7ec8e3"/><rect x="66" y="98" width="30" height="14" fill="#7ec8e3"/><rect x="98" y="98" width="30" height="14" fill="#7ec8e3"/><rect x="-14" y="114" width="30" height="14" fill="#7ec8e3"/><rect x="18" y="114" width="30" height="14" fill="#7ec8e3"/><rect x="50" y="114" width="30" height="14" fill="#7ec8e3"/><rect x="82" y="114" width="30" height="14" fill="#7ec8e3"/><rect x="114" y="114" width="14" height="14" fill="#7ec8e3"/></svg>