<svg xmlns="http://www.w3.org/2000/svg" width="128" height="128" viewBox="0 0 128 128"><rect width="128" height="128" fill="#8dc26f"/><rect x="10" y="4" width="4" height="16" fill="#4a7c40"/><rect x="4" y="10" width="16" height="4" fill="#4a7c40"/><rect x="34" y="4" width="4" height="16" fill="#4a7c40"/><rect x="28" y="10" width="16" height="4" fill="#4a7c40"/><rect x="58" y="4" width="4" height="16" fill="#4a7c40"/><rect x="52" y="10" width="16" height="4" fill="#4a7c40"/><rect x="82" y="4" width="4" height="16" fill="#4a7c40"/><rect x="76" y="10" width="16" height="4" fill="#4a7c40"/><rect x="106" y="4" width="4" height="16" fill="#4a7c40"/><rect x="100" y="10" width="16" height="4" fill="#4a7c40"/><rect x="130" y="4" width="4" height="16" fill="#4a7c40"/><rect x="124" y="10" width="16" height="4" fill="#4a7c40"/><rect x="10" y="28" width="4" height="16" fill="#4a7c40"/><rect x="4" y="34" width="16" height="4" fill="#4a7c40"/><rect x="34" y="28" width="4" height="16" fill="#4a7c40"/><rect x="28" y="34" width="16" height="4" fill="#4a7c40"/><rect x="58" y="28" width="4" height="16" fill="#4a7c40"/><rect x="52" y="34" width="16" height="4" fill="#4a7c40"/><rect x="82" y="28" width="4" height="16" fill="#4a7c40"/><rect x="76" y="34" width="16" height="4" fill="#4a7c40"/><rect x="106" y="28" width="4" height="16" fill="#4a7c40"/><rect x="100" y="34" width="16" height="4" fill="#4a7c40"/><rect x="130" y="28" width="4" height="16" fill="#4a7c40"/><rect x="124" y="34" width="16" height="4" fill="#4a7c40"/><rect x="10" y="52" width="4" height="16" fill="#4a7c40"/><rect x="4" y="58" width="16" height="4" fill="#4a7c40"/><rect x="34" y="52" width="4" height="16" fill="#4a7c40"/><rect x="28" y="58" width="16" height="4" fill="#4a7c40"/><rect x="58" y="52" width="4" height="16" fill="#4a7c40"/><rect x="52" y="58" width="16" height="4" fill="#4a7c40"/><rect x="82" y="52" width="4" height="16" fill="#4a7c40"/><rect x="76" y="58" width="16" height="4" fill="#4a7c40"/><rect x="106" y="52" width="4" height="16" fill="#4a7c40"/><rect x="100" y="58" width="16" height="4" fill="#4a7c40"/><rect x="130" y="52" width="4" height="16" fill="#4a7c40"/><rect x="124" y="58" width="16" height="4" fill="#4a7c40"/><rect x="10" y="76" width="4" height="16" fill="#4a7c40"/><rect x="4" y="82" width="16" height="4" fill="#4a7c40"/><rect x="34" y="76" width="4" height="16" fill="#4a7c40"/><rect x="28" y="82" width="16" height="4" fill="#4a7c40"/><rect x="58" y="76" width="4" height="16" fill="#4a7c40"/><rect x="52" y="82" width="16" height="4" fill="#4a7c40"/><rect x="82" y="76" width="4" height="16" fill="#4a7c40"/><rect x="76" y="82" width="16" height="4" fill="#4a7c40"/><rect x="106" y="76" width="4" height="16" fill="#4a7c40"/><rect x="100" y="82" width="16" height="4" fill="#4a7c40"/><rect x="130" y="76" width="4" height="16" fill="#4a7c40"/><rect x="124" y="82" width="16" height="4" fill="#4a7c40"/><rect x="10" y="100" width="4" height="16" fill="#4a7c40"/><rect x="4" y="106" width="16" height="4" fill="#4a7c40"/><rect x="34" y="100" width="4" height="16" fill="#4a7c40"/><rect x="28" y="106" width="16" height="4" fill="#4a7c40"/><rect x="58" y="100" width="4" height="16" fill="#4a7c40"/><rect x="52" y="106" width="16" height="4" fill="#4a7c40"/><rect x="82" y="100" width="4" height="16" fill="#4a7c40"/><rect x="76" y="106" width="16" height="4" fill="#4a7c40"/><rect x="106" y="100" width="4" height="16" fill="#4a7c40"/><rect x="100" y="106" width="16" height="4" fill="#4a7c40"/><rect x="130" y="100" width="4" height="16" fill="#4a7c40"/><rect x="124" y="106" width="16" height="4" fill="#4a7c40"/><rect x="10" y="124" width="4" height="16" fill="#4a7c40"/><rect x="4" y="130" width="16" height="4" fill="#4a7c40"/><rect x="34" y="124" width="4" height="16" fill="#4a7c40"/><rect x="28" y="130" width="16" height="4" fill="#4a7c40"/><rect x="58" y="124" width="4" height="16" fill="#4a7c40"/><rect x="52" y="130" width="16" height="4" fill="#4a7c40"/><rect x="82" y="124" width="4" height="16" fill="#4a7c40"/><rect x="76" y="130" width="16" height="4" fill="#4a7c40"/><rect x="106" y="124" width="4" height="16" fill="#4a7c40"/><rect x="100" y="130" width="16" height="4" fill="#4a7c40"/><rect x="130" y="124" width="4" height="16" fill="#4a7c40"/><rect x="124" y="130" width="16" height="4" fill="#4a7c40"/></svg>