<svg xmlns="http://www.w3.org/2000/svg" width="128" height="128" viewBox="0 0 128 128"><rect width="128" height="128" fill="#c47828"/><polygon points="0,-8 8,0 0,8 -8,0" fill="#e8a848"/><polygon points="16,-8 24,0 16,8 8,0" fill="#c47828"/><polygon points="32,-8 40,0 32,8 24,0" fill="#e8a848"/><polygon points="48,-8 56,0 48,8 40,0" fill="#c47828"/><polygon points="64,-8 72,0 64,8 56,0" fill="#e8a848"/><polygon points="80,-8 88,0 80,8 72,0" fill="#c47828"/><polygon points="96,-8 104,0 96,8 88,0" fill="#e8a848"/><polygon points="112,-8 120,0 112,8 104,0" fill="#c47828"/><polygon points="128,-8 136,0 128,8 120,0" fill="#e8a848"/><polygon points="0,8 8,16 0,24 -8,16" fill="#c47828"/><polygon points="16,8 24,16 16,24 8,16" fill="#e8a848"/><polygon points="32,8 40,16 32,24 24,16" fill="#c47828"/><polygon points="48,8 56,16 48,24 40,16" fill="#e8a848"/><polygon points="64,8 72,16 64,24 56,16" fill="#c47828"/><polygon points="80,8 88,16 80,24 72,16" fill="#e8a848"/><polygon points="96,8 104,16 96,24 88,16" fill="#c47828"/><polygon points="112,8 120,16 112,24 104,16" fill="#e8a848"/><polygon points="128,8 136,16 128,24 120,16" fill="#c47828"/><polygon points="0,24 8,32 0,40 -8,32" fill="#e8a848"/><polygon points="16,24 24,32 16,40 8,32" fill="#c47828"/><polygon points="32,24 40,32 32,40 24,32" fill="#e8a848"/><polygon points="48,24 56,32 48,40 40,32" fill="#c47828"/><polygon points="64,24 72,32 64,40 56,32" fill="#e8a848"/><polygon points="80,24 88,32 80,40 72,32" fill="#c47828"/><polygon points="96,24 104,32 96,40 88,32" fill="#e8a848"/><polygon points="112,24 120,32 112,40 104,32" fill="#c47828"/><polygon points="128,24 136,32 128,40 120,32" fill="#e8a848"/><polygon points="0,40 8,48 0,56 -8,48" fill="#c47828"/><polygon points="16,40 24,48 16,56 8,48" fill="#e8a848"/><polygon points="32,40 40,48 32,56 24,48" fill="#c47828"/><polygon points="48,40 56,48 48,56 40,48" fill="#e8a848"/><polygon points="64,40 72,48 64,56 56,48" fill="#c47828"/><polygon points="80,40 88,48 80,56 72,48" fill="#e8a848"/><polygon points="96,40 104,48 96,56 88,48" fill="#c47828"/><polygon points="112,40 120,48 112,56 104,48" fill="#e8a848"/><polygon points="128,40 136,48 128,56 120,48" fill="#c47828"/><polygon points="0,56 8,64 0,72 -8,64" fill="#e8a848"/><polygon points="16,56 24,64 16,72 8,64" fill="#c47828"/><polygon points="32,56 40,64 32,72 24,64" fill="#e8a848"/><polygon points="48,56 56,64 48,72 40,64" fill="#c47828"/><polygon points="64,56 72,64 64,72 56,64" fill="#e8a848"/><polygon points="80,56 88,64 80,72 72,64" fill="#c47828"/><polygon points="96,56 104,64 96,72 88,64" fill="#e8a848"/><polygon points="112,56 120,64 112,72 104,64" fill="#c47828"/><polygon points="128,56 136,64 128,72 120,64" fill="#e8a848"/><polygon points="0,72 8,80 0,88 -8,80" fill="#c47828"/><polygon points="16,72 24,80 16,88 8,80" fill="#e8a848"/><polygon points="32,72 40,80 32,88 24,80" fill="#c47828"/><polygon points="48,72 56,80 48,88 40,80" fill="#e8a848"/><polygon points="64,72 72,80 64,88 56,80" fill="#c47828"/><polygon points="80,72 88,80 80,88 72,80" fill="#e8a848"/><polygon points="96,72 104,80 96,88 88,80" fill="#c47828"/><polygon points="112,72 120,80 112,88 104,80" fill="#e8a848"/><polygon points="128,72 136,80 128,88 120,80" fill="#c47828"/><polygon points="0,88 8,96 0,104 -8,96" fill="#e8a848"/><polygon points="16,88 24,96 16,104 8,96" fill="#c47828"/><polygon points="32,88 40,96 32,104 24,96" fill="#e8a848"/><polygon points="48,88 56,96 48,104 40,96" fill="#c47828"/><polygon points="64,88 72,96 64,104 56,96" fill="#e8a848"/><polygon points="80,88 88,96 80,104 72,96" fill="#c47828"/><polygon points="96,88 104,96 96,104 88,96" fill="#e8a848"/><polygon points="112,88 120,96 112,104 104,96" fill="#c47828"/><polygon points="128,88 136,96 128,104 120,96" fill="#e8a848"/><polygon points="0,104 8,112 0,120 -8,112" fill="#c47828"/><polygon points="16,104 24,112 16,120 8,112" fill="#e8a848"/><polygon points="32,104 40,112 32,120 24,112" fill="#c47828"/><polygon points="48,104 56,112 48,120 40,112" fill="#e8a848"/><polygon points="64,104 72,112 64,120 56,112" fill="#c47828"/><polygon points="80,104 88,112 80,120 72,112" fill="#e8a848"/><polygon points="96,104 104,112 96,120 88,112" fill="#c47828"/><polygon points="112,104 120,112 112,120 104,112" fill="#e8a848"/><polygon points="128,104 136,112 128,120 120,112" fill="#c47828"/><polygon points="0,120 8,128 0,136 -8,128" fill="#e8a848"/><polygon points="16,120 24,128 16,136 8,128" fill="#c47828"/><polygon points="32,120 40,128 32,136 24,128" fill="#e8a848"/><polygon points="48,120 56,128 48,136 40,128" fill="#c47828"/><polygon points="64,120 72,128 64,136 56,128" fill="#e8a848"/><polygon points="80,120 88,128 80,136 72,128" fill="#c47828"/><polygon points="96,120 104,128 96,136 88,128" fill="#e8a848"/><polygon points="112,120 120,128 112,136 104,128" fill="#c47828"/><polygon points="128,120 136,128 128,136 120,128" fill="#e8a848"/></svg>