<svg xmlns="http://www.w3.org/2000/svg" width="128" height="128" viewBox="0 0 128 128"><rect width="128" height="128" fill="#7ec8e3"/><circle cx="0" cy="0" r="5" fill="#4a8db7"/><circle cx="16" cy="0" r="5" fill="#4a8db7"/><circle cx="32" cy="0" r="5" fill="#4a8db7"/><circle cx="48" cy="0" r="5" fill="#4a8db7"/><circle cx="64" cy="0" r="5" fill="#4a8db7"/><circle cx="80" cy="0" r="5" fill="#4a8db7"/><circle cx="96" cy="0" r="5" fill="#4a8db7"/><circle cx="112" cy="0" r="5" fill="#4a8db7"/><circle cx="128" cy="0" r="5" fill="#4a8db7"/><circle cx="8" cy="16" r="5" fill="#4a8db7"/><circle cx="24" cy="16" r="5" fill="#4a8db7"/><circle cx="40" cy="16" r="5" fill="#4a8db7"/><circle cx="56" cy="16" r="5" fill="#4a8db7"/><circle cx="72" cy="16" r="5" fill="#4a8db7"/><circle cx="88" cy="16" r="5" fill="#4a8db7"/><circle cx="104" cy="16" r="5" fill="#4a8db7"/><circle cx="120" cy="16" r="5" fill="#4a8db7"/><circle cx="136" cy="16" r="5" fill="#4a8db7"/><circle cx="0" cy="32" r="5" fill="#4a8db7"/><circle cx="16" cy="32" r="5" fill="#4a8db7"/><circle cx="32" cy="32" r="5" fill="#4a8db7"/><circle cx="48" cy="32" r="5" fill="#4a8db7"/><circle cx="64" cy="32" r="5" fill="#4a8db7"/><circle cx="80" cy="32" r="5" fill="#4a8db7"/><circle cx="96" cy="32" r="5" fill="#4a8db7"/><circle cx="112" cy="32" r="5" fill="#4a8db7"/><circle cx="128" cy="32" r="5" fill="#4a8db7"/><circle cx="8" cy="48" r="5" fill="#4a8db7"/><circle cx="24" cy="48" r="5" fill="#4a8db7"/><circle cx="40" cy="48" r="5" fill="#4a8db7"/><circle cx="56" cy="48" r="5" fill="#4a8db7"/><circle cx="72" cy="48" r="5" fill="#4a8db7"/><circle cx="88" cy="48" r="5" fill="#4a8db7"/><circle cx="104" cy="48" r="5" fill="#4a8db7"/><circle cx="120" cy="48" r="5" fill="#4a8db7"/><circle cx="136" cy="48" r="5" fill="#4a8db7"/><circle cx="0" cy="64" r="5" fill="#4a8db7"/><circle cx="16" cy="64" r="5" fill="#4a8db7"/><circle cx="32" cy="64" r="5" fill="#4a8db7"/><circle cx="48" cy="64" r="5" fill="#4a8db7"/><circle cx="64" cy="64" r="5" fill="#4a8db7"/><circle cx="80" cy="64" r="5" fill="#4a8db7"/><circle cx="96" cy="64" r="5" fill="#4a8db7"/><circle cx="112" cy="64" r="5" fill="#4a8db7"/><circle cx="128" cy="64" r="5" fill="#4a8db7"/><circle cx="8" cy="80" r="5" fill="#4a8db7"/><circle cx="24" cy="80" r="5" fill="#4a8db7"/><circle cx="40" cy="80" r="5" fill="#4a8db7"/><circle cx="56" cy="80" r="5" fill="#4a8db7"/><circle cx="72" cy="80" r="5" fill="#4a8db7"/><circle cx="88" cy="80" r="5" fill="#4a8db7"/><circle cx="104" cy="80" r="5" fill="#4a8db7"/><circle cx="120" cy="80" r="5" fill="#4a8db7"/><circle cx="136" cy="80" r="5" fill="#4a8db7"/><circle cx="0" cy="96" r="5" fill="#4a8db7"/><circle cx="16" cy="96" r="5" fill="#4a8db7"/><circle cx="32" cy="96" r="5" fill="#4a8db7"/><circle cx="48" cy="96" r="5" fill="#4a8db7"/><circle cx="64" cy="96" r="5" fill="#4a8db7"/><circle cx="80" cy="96" r="5" fill="#4a8db7"/><circle cx="96" cy="96" r="5" fill="#4a8db7"/><circle cx="112" cy="96" r="5" fill="#4a8db7"/><circle cx="128" cy="96" r="5" fill="#4a8db7"/><circle cx="8" cy="112" r="5" fill="#4a8db7"/><circle cx="24" cy="112" r="5" fill="#4a8db7"/><circle cx="40" cy="112" r="5" fill="#4a8db7"/><circle cx="56" cy="112" r="5" fill="#4a8db7"/><circle cx="72" cy="112" r="5" fill="#4a8db7"/><circle cx="88" cy="112" r="5" fill="#4a8db7"/><circle cx="104" cy="112" r="5" fill="#4a8db7"/><circle cx="120" cy="112" r="5" fill="#4a8db7"/><circle cx="136" cy="112" r="5" fill="#4a8db7"/><circle cx="0" cy="128" r="5" fill="#4a8db7"/><circle cx="16" cy="128" r="5" fill="#4a8db7"/><circle cx="32" cy="128" r="5" fill="#4a8db7"/><circle cx="48" cy="128" r="5" fill="#4a8db7"/><circle cx="64" cy="128" r="5" fill="#4a8db7"/><circle cx="80" cy="128" r="5" fill="#4a8db7"/><circle cx="96" cy="128" r="5" fill="#4a8db7"/><circle cx="112" cy="128" r="5" fill="#4a8db7"/><circle cx="128" cy="128" r="5" fill="#4a8db7"/></svg>