<svg xmlns="http://www.w3.org/2000/svg" width="128" height="128" viewBox="0 0 128 128"><rect width="128" height="128" fill="#c47828"/><polygon points="0.0,0.0 7.0,6.0 7.0,18.0 0.0,24.0 -7.0,18.0 -7.0,6.0" fill="#e8a848" stroke="#c47828" stroke-width="1"/><polygon points="28.0,0.0 35.0,6.0 35.0,18.0 28.0,24.0 21.0,18.0 21.0,6.0" fill="#c47828" stroke="#c47828" stroke-width="1"/><polygon points="56.0,0.0 63.0,6.0 63.0,18.0 56.0,24.0 49.0,18.0 49.0,6.0" fill="#e8a848" stroke="#c47828" stroke-width="1"/><polygon points="84.0,0.0 91.0,6.0 91.0,18.0 84.0,24.0 77.0,18.0 77.0,6.0" fill="#c47828" stroke="#c47828" stroke-width="1"/><polygon points="112.0,0.0 119.0,6.0 119.0,18.0 112.0,24.0 105.0,18.0 105.0,6.0" fill="#e8a848" stroke="#c47828" stroke-width="1"/><polygon points="140.0,0.0 147.0,6.0 147.0,18.0 140.0,24.0 133.0,18.0 133.0,6.0" fill="#c47828" stroke="#c47828" stroke-width="1"/><polygon points="14.0,18.0 21.0,24.0 21.0,36.0 14.0,42.0 7.0,36.0 7.0,24.0" fill="#c47828" stroke="#c47828" stroke-width="1"/><polygon points="42.0,18.0 49.0,24.0 49.0,36.0 42.0,42.0 35.0,36.0 35.0,24.0" fill="#e8a848" stroke="#c47828" stroke-width="1"/><polygon points="70.0,18.0 77.0,24.0 77.0,36.0 70.0,42.0 63.0,36.0 63.0,24.0" fill="#c47828" stroke="#c47828" stroke-width="1"/><polygon points="98.0,18.0 105.0,24.0 105.0,36.0 98.0,42.0 91.0,36.0 91.0,24.0" fill="#e8a848" stroke="#c47828" stroke-width="1"/><polygon points="126.0,18.0 133.0,24.0 133.0,36.0 126.0,42.0 119.0,36.0 119.0,24.0" fill="#c47828" stroke="#c47828" stroke-width="1"/><polygon points="154.0,18.0 161.0,24.0 161.0,36.0 154.0,42.0 147.0,36.0 147.0,24.0" fill="#e8a848" stroke="#c47828" stroke-width="1"/><polygon points="0.0,36.0 7.0,42.0 7.0,54.0 0.0,60.0 -7.0,54.0 -7.0,42.0" fill="#e8a848" stroke="#c47828" stroke-width="1"/><polygon points="28.0,36.0 35.0,42.0 35.0,54.0 28.0,60.0 21.0,54.0 21.0,42.0" fill="#c47828" stroke="#c47828" stroke-width="1"/><polygon points="56.0,36.0 63.0,42.0 63.0,54.0 56.0,60.0 49.0,54.0 49.0,42.0" fill="#e8a848" stroke="#c47828" stroke-width="1"/><polygon points="84.0,36.0 91.0,42.0 91.0,54.0 84.0,60.0 77.0,54.0 77.0,42.0" fill="#c47828" stroke="#c47828" stroke-width="1"/><polygon points="112.0,36.0 119.0,42.0 119.0,54.0 112.0,60.0 105.0,54.0 105.0,42.0" fill="#e8a848" stroke="#c47828" stroke-width="1"/><polygon points="140.0,36.0 147.0,42.0 147.0,54.0 140.0,60.0 133.0,54.0 133.0,42.0" fill="#c47828" stroke="#c47828" stroke-width="1"/><polygon points="14.0,54.0 21.0,60.0 21.0,72.0 14.0,78.0 7.0,72.0 7.0,60.0" fill="#c47828" stroke="#c47828" stroke-width="1"/><polygon points="42.0,54.0 49.0,60.0 49.0,72.0 42.0,78.0 35.0,72.0 35.0,60.0" fill="#e8a848" stroke="#c47828" stroke-width="1"/><polygon points="70.0,54.0 77.0,60.0 77.0,72.0 70.0,78.0 63.0,72.0 63.0,60.0" fill="#c47828" stroke="#c47828" stroke-width="1"/><polygon points="98.0,54.0 105.0,60.0 105.0,72.0 98.0,78.0 91.0,72.0 91.0,60.0" fill="#e8a848" stroke="#c47828" stroke-width="1"/><polygon points="126.0,54.0 133.0,60.0 133.0,72.0 126.0,78.0 119.0,72.0 119.0,60.0" fill="#c47828" stroke="#c47828" stroke-width="1"/><polygon points="154.0,54.0 161.0,60.0 161.0,72.0 154.0,78.0 147.0,72.0 147.0,60.0" fill="#e8a848" stroke="#c47828" stroke-width="1"/><polygon points="0.0,72.0 7.0,78.0 7.0,90.0 0.0,96.0 -7.0,90.0 -7.0,78.0" fill="#e8a848" stroke="#c47828" stroke-width="1"/><polygon points="28.0,72.0 35.0,78.0 35.0,90.0 28.0,96.0 21.0,90.0 21.0,78.0" fill="#c47828" stroke="#c47828" stroke-width="1"/><polygon points="56.0,72.0 63.0,78.0 63.0,90.0 56.0,96.0 49.0,90.0 49.0,78.0" fill="#e8a848" stroke="#c47828" stroke-width="1"/><polygon points="84.0,72.0 91.0,78.0 91.0,90.0 84.0,96.0 77.0,90.0 77.0,78.0" fill="#c47828" stroke="#c47828" stroke-width="1"/><polygon points="112.0,72.0 119.0,78.0 119.0,90.0 112.0,96.0 105.0,90.0 105.0,78.0" fill="#e8a848" stroke="#c47828" stroke-width="1"/><polygon points="140.0,72.0 147.0,78.0 147.0,90.0 140.0,96.0 133.0,90.0 133.0,78.0" fill="#c47828" stroke="#c47828" stroke-width="1"/><polygon points="14.0,90.0 21.0,96.0 21.0,108.0 14.0,114.0 7.0,108.0 7.0,96.0" fill="#c47828" stroke="#c47828" stroke-width="1"/><polygon points="42.0,90.0 49.0,96.0 49.0,108.0 42.0,114.0 35.0,108.0 35.0,96.0" fill="#e8a848" stroke="#c47828" stroke-width="1"/><polygon points="70.0,90.0 77.0,96.0 77.0,108.0 70.0,114.0 63.0,108.0 63.0,96.0" fill="#c47828" stroke="#c47828" stroke-width="1"/><polygon points="98.0,90.0 105.0,96.0 105.0,108.0 98.0,114.0 91.0,108.0 91.0,96.0" fill="#e8a848" stroke="#c47828" stroke-width="1"/><polygon points="126.0,90.0 133.0,96.0 133.0,108.0 126.0,114.0 119.0,108.0 119.0,96.0" fill="#c47828" stroke="#c47828" stroke-width="1"/><polygon points="154.0,90.0 161.0,96.0 161.0,108.0 154.0,114.0 147.0,108.0 147.0,96.0" fill="#e8a848" stroke="#c47828" stroke-width="1"/><polygon points="0.0,108.0 7.0,114.0 7.0,126.0 0.0,132.0 -7.0,126.0 -7.0,114.0" fill="#e8a848" stroke="#c47828" stroke-width="1"/><polygon points="28.0,108.0 35.0,114.0 35.0,126.0 28.0,132.0 21.0,126.0 21.0,114.0" fill="#c47828" stroke="#c47828" stroke-width="1"/><polygon points="56.0,108.0 63.0,114.0 63.0,126.0 56.0,132.0 49.0,126.0 49.0,114.0" fill="#e8a848" stroke="#c47828" stroke-width="1"/><polygon points="84.0,108.0 91.0,114.0 91.0,126.0 84.0,132.0 77.0,126.0 77.0,114.0" fill="#c47828" stroke="#c47828" stroke-width="1"/><polygon points="112.0,108.0 119.0,114.0 119.0,126.0 112.0,132.0 105.0,126.0 105.0,114.0" fill="#e8a848" stroke="#c47828" stroke-width="1"/><polygon points="140.0,108.0 147.0,114.0 147.0,126.0 140.0,132.0 133.0,126.0 133.0,114.0" fill="#c47828" stroke="#c47828" stroke-width="1"/></svg>