<svg xmlns="http://www.w3.org/2000/svg" width="128" height="128" viewBox="0 0 128 128"><rect width="128" height="128" fill="#f0a0c0"/><line x1="-128" y1="0" x2="0" y2="128" stroke="#c05880" stroke-width="8"/><line x1="-112" y1="0" x2="16" y2="128" stroke="#c05880" stroke-width="8"/><line x1="-96" y1="0" x2="32" y2="128" stroke="#c05880" stroke-width="8"/><line x1="-80" y1="0" x2="48" y2="128" stroke="#c05880" stroke-width="8"/><line x1="-64" y1="0" x2="64" y2="128" stroke="#c05880" stroke-width="8"/><line x1="-48" y1="0" x2="80" y2="128" stroke="#c05880" stroke-width="8"/><line x1="-32" y1="0" x2="96" y2="128" stroke="#c05880" stroke-width="8"/><line x1="-16" y1="0" x2="112" y2="128" stroke="#c05880" stroke-width="8"/><line x1="0" y1="0" x2="128" y2="128" stroke="#c05880" stroke-width="8"/><line x1="16" y1="0" x2="144" y2="128" stroke="#c05880" stroke-width="8"/><line x1="32" y1="0" x2="160" y2="128" stroke="#c05880" stroke-width="8"/><line x1="48" y1="0" x2="176" y2="128" stroke="#c05880" stroke-width="8"/><line x1="64" y1="0" x2="192" y2="128" stroke="#c05880" stroke-width="8"/><line x1="80" y1="0" x2="208" y2="128" stroke="#c05880" stroke-width="8"/><line x1="96" y1="0" x2="224" y2="128" stroke="#c05880" stroke-width="8"/><line x1="112" y1="0" x2="240" y2="128" stroke="#c05880" stroke-width="8"/><line x1="128" y1="0" x2="256" y2="128" stroke="#c05880" stroke-width="8"/><line x1="144" y1="0" x2="272" y2="128" stroke="#c05880" stroke-width="8"/><line x1="160" y1="0" x2="288" y2="128" stroke="#c05880" stroke-width="8"/><line x1="176" y1="0" x2="304" y2="128" stroke="#c05880" stroke-width="8"/><line x1="192" y1="0" x2="320" y2="128" stroke="#c05880" stroke-width="8"/><line x1="208" y1="0" x2="336" y2="128" stroke="#c05880" stroke-width="8"/><line x1="224" y1="0" x2="352" y2="128" stroke="#c05880" stroke-width="8"/><line x1="240" y1="0" x2="368" y2="128" stroke="#c05880" stroke-width="8"/></svg>