<svg xmlns="http://www.w3.org/2000/svg" width="128" height="128" viewBox="0 0 128 128"><polygon points="0,0 24,0 0,24" fill="#7ec8e3"/><polygon points="24,0 24,24 0,24" fill="#4a8db7"/><polygon points="24,0 48,0 24,24" fill="#4a8db7"/><polygon points="48,0 48,24 24,24" fill="#7ec8e3"/><polygon points="48,0 72,0 48,24" fill="#7ec8e3"/><polygon points="72,0 72,24 48,24" fill="#4a8db7"/><polygon points="72,0 96,0 72,24" fill="#4a8db7"/><polygon points="96,0 96,24 72,24" fill="#7ec8e3"/><polygon points="96,0 120,0 96,24" fill="#7ec8e3"/><polygon points="120,0 120,24 96,24" fill="#4a8db7"/><polygon points="120,0 144,0 120,24" fill="#4a8db7"/><polygon points="144,0 144,24 120,24" fill="#7ec8e3"/><polygon points="0,24 24,24 0,48" fill="#4a8db7"/><polygon points="24,24 24,48 0,48" fill="#7ec8e3"/><polygon points="24,24 48,24 24,48" fill="#7ec8e3"/><polygon points="48,24 48,48 24,48" fill="#4a8db7"/><polygon points="48,24 72,24 48,48" fill="#4a8db7"/><polygon points="72,24 72,48 48,48" fill="#7ec8e3"/><polygon points="72,24 96,24 72,48" fill="#7ec8e3"/><polygon points="96,24 96,48 72,48" fill="#4a8db7"/><polygon points="96,24 120,24 96,48" fill="#4a8db7"/><polygon points="120,24 120,48 96,48" fill="#7ec8e3"/><polygon points="120,24 144,24 120,48" fill="#7ec8e3"/><polygon points="144,24 144,48 120,48" fill="#4a8db7"/><polygon points="0,48 24,48 0,72" fill="#7ec8e3"/><polygon points="24,48 24,72 0,72" fill="#4a8db7"/><polygon points="24,48 48,48 24,72" fill="#4a8db7"/><polygon points="48,48 48,72 24,72" fill="#7ec8e3"/><polygon points="48,48 72,48 48,72" fill="#7ec8e3"/><polygon points="72,48 72,72 48,72" fill="#4a8db7"/><polygon points="72,48 96,48 72,72" fill="#4a8db7"/><polygon points="96,48 96,72 72,72" fill="#7ec8e3"/><polygon points="96,48 120,48 96,72" fill="#7ec8e3"/><polygon points="120,48 120,72 96,72" fill="#4a8db7"/><polygon points="120,48 144,48 120,72" fill="#4a8db7"/><polygon points="144,48 144,72 120,72" fill="#7ec8e3"/><polygon points="0,72 24,72 0,96" fill="#4a8db7"/><polygon points="24,72 24,96 0,96" fill="#7ec8e3"/><polygon points="24,72 48,72 24,96" fill="#7ec8e3"/><polygon points="48,72 48,96 24,96" fill="#4a8db7"/><polygon points="48,72 72,72 48,96" fill="#4a8db7"/><polygon points="72,72 72,96 48,96" fill="#7ec8e3"/><polygon points="72,72 96,72 72,96" fill="#7ec8e3"/><polygon points="96,72 96,96 72,96" fill="#4a8db7"/><polygon points="96,72 120,72 96,96" fill="#4a8db7"/><polygon points="120,72 120,96 96,96" fill="#7ec8e3"/><polygon points="120,72 144,72 120,96" fill="#7ec8e3"/><polygon points="144,72 144,96 120,96" fill="#4a8db7"/><polygon points="0,96 24,96 0,120" fill="#7ec8e3"/><polygon points="24,96 24,120 0,120" fill="#4a8db7"/><polygon points="24,96 48,96 24,120" fill="#4a8db7"/><polygon points="48,96 48,120 24,120" fill="#7ec8e3"/><polygon points="48,96 72,96 48,120" fill="#7ec8e3"/><polygon points="72,96 72,120 48,120" fill="#4a8db7"/><polygon points="72,96 96,96 72,120" fill="#4a8db7"/><polygon points="96,96 96,120 72,120" fill="#7ec8e3"/><polygon points="96,96 120,96 96,120" fill="#7ec8e3"/><polygon points="120,96 120,120 96,120" fill="#4a8db7"/><polygon points="120,96 144,96 120,120" fill="#4a8db7"/><polygon points="144,96 144,120 120,120" fill="#7ec8e3"/><polygon points="0,120 24,120 0,144" fill="#4a8db7"/><polygon points="24,120 24,144 0,144" fill="#7ec8e3"/><polygon points="24,120 48,120 24,144" fill="#7ec8e3"/><polygon points="48,120 48,144 24,144" fill="#4a8db7"/><polygon points="48,120 72,120 48,144" fill="#4a8db7"/><polygon points="72,120 72,144 48,144" fill="#7ec8e3"/><polygon points="72,120 96,120 72,144" fill="#7ec8e3"/><polygon points="96,120 96,144 72,144" fill="#4a8db7"/><polygon points="96,120 120,120 96,144" fill="#4a8db7"/><polygon points="120,120 120,144 96,144" fill="#7ec8e3"/><polygon points="120,120 144,120 120,144" fill="#7ec8e3"/><polygon points="144,120 144,144 120,144" fill="#4a8db7"/></svg>