<svg xmlns="http://www.w3.org/2000/svg" width="128" height="128" viewBox="0 0 128 128"><rect width="128" height="128" fill="#c8c8c8"/><polyline points="0,0 16,12 32,0 48,12 64,0 80,12 96,0 112,12 128,0" fill="none" stroke="#808080" stroke-width="3"/><polyline points="0,12 16,24 32,12 48,24 64,12 80,24 96,12 112,24 128,12" fill="none" stroke="#808080" stroke-width="3"/><polyline points="0,24 16,36 32,24 48,36 64,24 80,36 96,24 112,36 128,24" fill="none" stroke="#808080" stroke-width="3"/><polyline points="0,36 16,48 32,36 48,48 64,36 80,48 96,36 112,48 128,36" fill="none" stroke="#808080" stroke-width="3"/><polyline points="0,48 16,60 32,48 48,60 64,48 80,60 96,48 112,60 128,48" fill="none" stroke="#808080" stroke-width="3"/><polyline points="0,60 16,72 32,60 48,72 64,60 80,72 96,60 112,72 128,60" fill="none" stroke="#808080" stroke-width="3"/><polyline points="0,72 16,84 32,72 48,84 64,72 80,84 96,72 112,84 128,72" fill="none" stroke="#808080" stroke-width="3"/><polyline points="0,84 16,96 32,84 48,96 64,84 80,96 96,84 112,96 128,84" fill="none" stroke="#808080" stroke-width="3"/><polyline points="0,96 16,108 32,96 48,108 64,96 80,108 96,96 112,108 128,96" fill="none" stroke="#808080" stroke-width="3"/><polyline points="0,108 16,120 32,108 48,120 64,108 80,120 96,108 112,120 128,108" fill="none" stroke="#808080" stroke-width="3"/><polyline points="0,120 16,132 32,120 48,132 64,120 80,132 96,120 112,132 128,120" fill="none" stroke="#808080" stroke-width="3"/></svg>